<?xml version="1.0" encoding="UTF-8"?>
<svg xmlns="http://www.w3.org/2000/svg" viewBox="0 0 64 64">
  <defs>
    <style>
      .cls-1 {
        fill: #fffda9;
      }

      .cls-1, .cls-2, .cls-3, .cls-4, .cls-5, .cls-6 {
        stroke-width: 0px;
      }

      .cls-1, .cls-4 {
        mix-blend-mode: screen;
      }

      .cls-2 {
        fill: #231815;
      }

      .cls-7 {
        isolation: isolate;
      }

      .cls-4 {
        fill: #f2cccc;
      }

      .cls-5 {
        fill: #b3c2e5;
      }

      .cls-6 {
        fill: #cdedb9;
      }
    </style>
  </defs>
  <g class="cls-7">
    <g id="_레이어_2" data-name="레이어 2">
      <path class="cls-3" d="m52.16,58.99c5.07-3.55,4.75-20-7.61-30-10.46-5-7.61,19-5.7,22s7.61,12,13.31,8Z"/>
      <path class="cls-5" d="m57.63,13.96c2-4-10-2-15,3s-8,21-6,20,11-5,14-11,7-12,7-12Z"/>
      <path class="cls-4" d="m52.16,58.99c5.07-3.55,4.75-20-7.61-30-10.46-5-7.61,19-5.7,22s7.61,12,13.31,8Z"/>
      <path class="cls-3" d="m28.17,43.6c3-6,0-16-5-15s-20,28-7,24,12-9,12-9Z"/>
      <path class="cls-6" d="m25.82,37.85c3.54-3.54,4-10,2-17s-22-12-14,1,11,17,12,16Z"/>
      <path class="cls-1" d="m28.17,43.6c3-6,0-16-5-15s-20,28-7,24,12-9,12-9Z"/>
    </g>
    <g id="_레이어_3" data-name="레이어 3">
      <path class="cls-2" d="m44.22,56.03c-1.72,0-3.27-1.09-4.5-2.32-2.87-2.87-4.67-6.61-6.37-10.3-.17-.37-.21-.99.2-1.01.25-.01.41.25.52.48,1.68,3.69,3.48,7.43,6.35,10.3,1.01,1.01,2.26,1.94,3.68,1.96,1.98.03,3.55-1.7,4.44-3.48,1.65-3.29,1.95-7.2,1.03-10.77s-2.99-6.79-5.69-9.29c-1.42,1.6-3.1,2.98-4.95,4.05-.78.45-1.8.85-2.55.33-.67-.46-.75-1.42-.69-2.23.12-1.81.7-3.82,2.31-4.64,1.86-.95,4.08.16,5.82,1.32,3-3.13,5.66-6.59,7.93-10.28,1.48-2.42,3.08-5.17,3.36-8.05.06-.6.05-1.23-.24-1.76-1.21-2.25-5.29-1.56-7.3-1.3-2.23.29-4.37,1.07-6.2,2.39-3.48,2.51-5.43,6.55-6.74,10.52-.88,2.68-1.49,5.44-2.1,8.19-.38,1.72-.74,3.35-1.13,4.7-1.99,6.81-9.46,16.22-15.35,17.49-1.99.43-3.68-.12-4.9-1.59-4.48-6.16-1.99-11.67-.1-14.41,1.16-1.69,2.66-3.18,4.27-4.35-3.85-4.86-7.18-11.28-7.34-15.62-.13-3.52,1.65-5.49,5.16-5.69,4.46-.26,8.08.94,10.78,3.57,4.91,4.78,4.99,12.5,5,12.82,0,.24-.19.44-.42.44-.23,0-.42-.19-.42-.44,0-.08-.08-7.68-4.73-12.19-2.52-2.45-5.94-3.57-10.15-3.32-3.01.17-4.47,1.78-4.36,4.78.16,4.38,3.48,10.55,7.19,15.17,2.91-1.93,6.1-2.83,8.37-2.1,1.78.58,2.77,2.16,2.78,4.45.02,4.05-1.53,4.94-2.83,4.97-.02,0-.04,0-.07,0-2.26,0-5.45-2.58-8.41-6.15-1.57,1.13-3.02,2.57-4.13,4.18-1.75,2.55-4.07,7.67.07,13.36,1,1.21,2.37,1.65,4.06,1.28,5.52-1.2,12.83-10.44,14.71-16.89.39-1.32.74-2.94,1.12-4.64,1.67-7.6,3.79-17.18,11.7-20.66,2.63-1.16,5.84-1.51,8.69-1.28,1.37.11,2.82.68,3.49,1.88.4.72.47,1.58.41,2.4-.24,3.31-2.27,6.15-3.94,8.9-2.14,3.52-4.68,6.8-7.58,9.74,2.84,2.69,5.02,6.13,5.95,9.92s.57,7.95-1.27,11.4c-.99,1.86-2.63,3.62-4.73,3.75-.07,0-.15,0-.22,0Zm-27.63-23.83c2.82,3.37,5.78,5.76,7.7,5.76.02,0,.03,0,.05,0,1.34-.03,2.01-1.41,2-4.09,0-1.93-.74-3.15-2.19-3.62-1.99-.65-4.88.2-7.56,1.94Zm23-2.57c-.23,0-.46.02-.67.08-1.59.38-2.16,2.15-2.35,3.57-.15,1.08-.04,1.79.3,2,.19.12,1,.36,3.37-1.48.93-.72,1.93-1.63,2.98-2.68-1.28-.94-2.55-1.48-3.63-1.48Z"/>
    </g>
  </g>
</svg>